<svg xmlns="http://www.w3.org/2000/svg" style="display:none" aria-hidden="true">
<!--
  Theme: Lucide  –  lucide.dev  (MIT)
  Alle Symbole aus der Lucide-Bibliothek. Stile: round caps/joins, sw=2.
-->

  <!-- ── Navigation ──────────────────────────────────────────────────────── -->

  <symbol id="icon-home" viewBox="0 0 24 24">
    <g stroke-linecap="round" stroke-linejoin="round">
      <path d="M15 21v-8a1 1 0 0 0-1-1h-4a1 1 0 0 0-1 1v8"/>
      <path d="M3 10a2 2 0 0 1 .709-1.528l7-6a2 2 0 0 1 2.582 0l7 6A2 2 0 0 1 21 10v9a2 2 0 0 1-2 2H5a2 2 0 0 1-2-2z"/>
    </g>
  </symbol>

  <symbol id="icon-settings" viewBox="0 0 24 24">
    <g stroke-linecap="round" stroke-linejoin="round">
      <path d="M9.671 4.136a2.34 2.34 0 0 1 4.659 0 2.34 2.34 0 0 0 3.319 1.915 2.34 2.34 0 0 1 2.33 4.033 2.34 2.34 0 0 0 0 3.831 2.34 2.34 0 0 1-2.33 4.033 2.34 2.34 0 0 0-3.319 1.915 2.34 2.34 0 0 1-4.659 0 2.34 2.34 0 0 0-3.32-1.915 2.34 2.34 0 0 1-2.33-4.033 2.34 2.34 0 0 0 0-3.831A2.34 2.34 0 0 1 6.35 6.051a2.34 2.34 0 0 0 3.319-1.915"/>
      <circle cx="12" cy="12" r="3"/>
    </g>
  </symbol>

  <symbol id="icon-list" viewBox="0 0 24 24">
    <g stroke-linecap="round" stroke-linejoin="round">
      <path d="M3 5h.01"/>
      <path d="M3 12h.01"/>
      <path d="M3 19h.01"/>
      <path d="M8 5h13"/>
      <path d="M8 12h13"/>
      <path d="M8 19h13"/>
    </g>
  </symbol>

  <symbol id="icon-bar-chart" viewBox="0 0 24 24">
    <g stroke-linecap="round" stroke-linejoin="round">
      <path d="M3 3v16a2 2 0 0 0 2 2h16"/>
      <path d="M7 11h8"/>
      <path d="M7 16h12"/>
      <path d="M7 6h3"/>
    </g>
  </symbol>

  <symbol id="icon-chart" viewBox="0 0 24 24">
    <g stroke-linecap="round" stroke-linejoin="round">
      <path d="M3 3v16a2 2 0 0 0 2 2h16"/>
      <path d="M7 11h8"/>
      <path d="M7 16h12"/>
      <path d="M7 6h3"/>
    </g>
  </symbol>

  <symbol id="icon-clock" viewBox="0 0 24 24">
    <g stroke-linecap="round" stroke-linejoin="round">
      <circle cx="12" cy="12" r="10"/>
      <path d="M12 6v6l4 2"/>
    </g>
  </symbol>

  <symbol id="icon-alert" viewBox="0 0 24 24">
    <g stroke-linecap="round" stroke-linejoin="round">
      <path d="m21.73 18-8-14a2 2 0 0 0-3.48 0l-8 14A2 2 0 0 0 4 21h16a2 2 0 0 0 1.73-3"/>
      <path d="M12 9v4"/>
      <path d="M12 17h.01"/>
    </g>
  </symbol>

  <symbol id="icon-monitor" viewBox="0 0 24 24">
    <g stroke-linecap="round" stroke-linejoin="round">
      <rect width="20" height="14" x="2" y="3" rx="2"/>
      <line x1="8" x2="16" y1="21" y2="21"/>
      <line x1="12" x2="12" y1="17" y2="21"/>
    </g>
  </symbol>

  <symbol id="icon-archive" viewBox="0 0 24 24">
    <g stroke-linecap="round" stroke-linejoin="round">
      <rect width="20" height="5" x="2" y="3" rx="1"/>
      <path d="M4 8v11a2 2 0 0 0 2 2h12a2 2 0 0 0 2-2V8"/>
      <path d="M10 12h4"/>
    </g>
  </symbol>

  <symbol id="icon-search" viewBox="0 0 24 24">
    <g stroke-linecap="round" stroke-linejoin="round">
      <circle cx="11" cy="11" r="8"/>
      <path d="m21 21-4.34-4.34"/>
    </g>
  </symbol>

  <symbol id="icon-database" viewBox="0 0 24 24">
    <g stroke-linecap="round" stroke-linejoin="round">
      <ellipse cx="12" cy="5" rx="9" ry="3"/>
      <path d="M3 5V19A9 3 0 0 0 21 19V5"/>
      <path d="M3 12A9 3 0 0 0 21 12"/>
    </g>
  </symbol>

  <symbol id="icon-users" viewBox="0 0 24 24">
    <g stroke-linecap="round" stroke-linejoin="round">
      <path d="M16 21v-2a4 4 0 0 0-4-4H6a4 4 0 0 0-4 4v2"/>
      <path d="M16 3.128a4 4 0 0 1 0 7.744"/>
      <path d="M22 21v-2a4 4 0 0 0-3-3.87"/>
      <circle cx="9" cy="7" r="4"/>
    </g>
  </symbol>

  <symbol id="icon-server" viewBox="0 0 24 24">
    <g stroke-linecap="round" stroke-linejoin="round">
      <rect width="20" height="8" x="2" y="2" rx="2" ry="2"/>
      <rect width="20" height="8" x="2" y="14" rx="2" ry="2"/>
      <line x1="6" x2="6.01" y1="6" y2="6"/>
      <line x1="6" x2="6.01" y1="18" y2="18"/>
    </g>
  </symbol>

  <symbol id="icon-bell" viewBox="0 0 24 24">
    <g stroke-linecap="round" stroke-linejoin="round">
      <path d="M10.268 21a2 2 0 0 0 3.464 0"/>
      <path d="M3.262 15.326A1 1 0 0 0 4 17h16a1 1 0 0 0 .74-1.673C19.41 13.956 18 12.499 18 8A6 6 0 0 0 6 8c0 4.499-1.411 5.956-2.738 7.326"/>
    </g>
  </symbol>

  <symbol id="icon-shield" viewBox="0 0 24 24">
    <g stroke-linecap="round" stroke-linejoin="round">
      <path d="M20 13c0 5-3.5 7.5-7.66 8.95a1 1 0 0 1-.67-.01C7.5 20.5 4 18 4 13V6a1 1 0 0 1 1-1c2 0 4.5-1.2 6.24-2.72a1.17 1.17 0 0 1 1.52 0C14.51 3.81 17 5 19 5a1 1 0 0 1 1 1z"/>
    </g>
  </symbol>

  <symbol id="icon-default" viewBox="0 0 24 24">
    <g stroke-linecap="round" stroke-linejoin="round">
      <circle cx="12" cy="12" r="10"/>
      <path d="M12 16v-4"/><path d="M12 8h.01"/>
    </g>
  </symbol>

  <symbol id="icon-moon" viewBox="0 0 24 24">
    <g stroke-linecap="round" stroke-linejoin="round">
      <path d="M20.985 12.486a9 9 0 1 1-9.473-9.472c.405-.022.617.46.402.803a6 6 0 0 0 8.268 8.268c.344-.215.825-.004.803.401"/>
    </g>
  </symbol>

  <symbol id="icon-sun" viewBox="0 0 24 24">
    <g stroke-linecap="round" stroke-linejoin="round">
      <circle cx="12" cy="12" r="4"/>
      <path d="M12 2v2"/><path d="M12 20v2"/>
      <path d="m4.93 4.93 1.41 1.41"/><path d="m17.66 17.66 1.41 1.41"/>
      <path d="M2 12h2"/><path d="M20 12h2"/>
      <path d="m6.34 17.66-1.41 1.41"/><path d="m19.07 4.93-1.41 1.41"/>
    </g>
  </symbol>

  <!-- ── UI-Aktions-Icons ─────────────────────────────────────────────────── -->

  <symbol id="icon-hamburger" viewBox="0 0 24 24">
    <g stroke-linecap="round" stroke-linejoin="round">
      <path d="M4 5h16"/><path d="M4 12h16"/><path d="M4 19h16"/>
    </g>
  </symbol>

  <symbol id="icon-edit" viewBox="0 0 24 24">
    <g stroke-linecap="round" stroke-linejoin="round">
      <path d="M21.174 6.812a1 1 0 0 0-3.986-3.987L3.842 16.174a2 2 0 0 0-.5.83l-1.321 4.352a.5.5 0 0 0 .623.622l4.353-1.32a2 2 0 0 0 .83-.497z"/>
      <path d="m15 5 4 4"/>
    </g>
  </symbol>

  <symbol id="icon-trash" viewBox="0 0 24 24">
    <g stroke-linecap="round" stroke-linejoin="round">
      <path d="M10 11v6"/><path d="M14 11v6"/>
      <path d="M19 6v14a2 2 0 0 1-2 2H7a2 2 0 0 1-2-2V6"/>
      <path d="M3 6h18"/>
      <path d="M8 6V4a2 2 0 0 1 2-2h4a2 2 0 0 1 2 2v2"/>
    </g>
  </symbol>

  <symbol id="icon-plus" viewBox="0 0 24 24">
    <g stroke-linecap="round" stroke-linejoin="round">
      <path d="M5 12h14"/><path d="M12 5v14"/>
    </g>
  </symbol>

  <symbol id="icon-minus" viewBox="0 0 24 24">
    <g stroke-linecap="round" stroke-linejoin="round">
      <path d="M5 12h14"/>
    </g>
  </symbol>

  <symbol id="icon-close" viewBox="0 0 24 24">
    <g stroke-linecap="round" stroke-linejoin="round">
      <path d="M18 6 6 18"/><path d="m6 6 12 12"/>
    </g>
  </symbol>

  <symbol id="icon-refresh-lg" viewBox="0 0 24 24">
    <g stroke-linecap="round" stroke-linejoin="round">
      <path d="M3 12a9 9 0 0 1 9-9 9.75 9.75 0 0 1 6.74 2.74L21 8"/>
      <path d="M21 3v5h-5"/>
      <path d="M21 12a9 9 0 0 1-9 9 9.75 9.75 0 0 1-6.74-2.74L3 16"/>
      <path d="M8 16H3v5"/>
    </g>
  </symbol>

  <symbol id="icon-play" viewBox="0 0 24 24">
    <g stroke-linecap="round" stroke-linejoin="round">
      <path d="M5 5a2 2 0 0 1 3.008-1.728l11.997 6.998a2 2 0 0 1 .003 3.458l-12 7A2 2 0 0 1 5 19z"/>
    </g>
  </symbol>

  <symbol id="icon-play-debug" viewBox="0 0 24 24">
    <g stroke-linecap="round" stroke-linejoin="round">
      <path d="M5 5a2 2 0 0 1 3.008-1.728l11.997 6.998a2 2 0 0 1 .003 3.458l-12 7A2 2 0 0 1 5 19z"/>
      <line x1="2" y1="2" x2="22" y2="22"/>
    </g>
  </symbol>

  <symbol id="icon-file-text" viewBox="0 0 24 24">
    <g stroke-linecap="round" stroke-linejoin="round">
      <path d="M6 22a2 2 0 0 1-2-2V4a2 2 0 0 1 2-2h8a2.4 2.4 0 0 1 1.704.706l3.588 3.588A2.4 2.4 0 0 1 20 8v12a2 2 0 0 1-2 2z"/>
      <path d="M14 2v5a1 1 0 0 0 1 1h5"/>
      <path d="M10 9H8"/><path d="M16 13H8"/><path d="M16 17H8"/>
    </g>
  </symbol>

  <symbol id="icon-refresh" viewBox="0 0 24 24">
    <g stroke-linecap="round" stroke-linejoin="round">
      <path d="M21 12a9 9 0 1 1-9-9c2.52 0 4.93 1 6.74 2.74L21 8"/>
      <path d="M21 3v5h-5"/>
    </g>
  </symbol>

  <symbol id="icon-power-on" viewBox="0 0 24 24">
    <g stroke-linecap="round" stroke-linejoin="round">
      <path d="M12 2v10"/>
      <path d="M18.4 6.6a9 9 0 1 1-12.77.04"/>
    </g>
  </symbol>

  <symbol id="icon-power-off" viewBox="0 0 24 24">
    <g stroke-linecap="round" stroke-linejoin="round">
      <path d="M18.36 6.64A9 9 0 0 1 20.77 15"/>
      <path d="M6.16 6.16a9 9 0 1 0 12.68 12.68"/>
      <path d="M12 2v4"/>
      <path d="m2 2 20 20"/>
    </g>
  </symbol>

  <symbol id="icon-bug" viewBox="0 0 24 24">
    <g stroke-linecap="round" stroke-linejoin="round">
      <path d="M12 20v-9"/>
      <path d="M14 7a4 4 0 0 1 4 4v3a6 6 0 0 1-12 0v-3a4 4 0 0 1 4-4z"/>
      <path d="M14.12 3.88 16 2"/><path d="M21 21a4 4 0 0 0-3.81-4"/>
      <path d="M21 5a4 4 0 0 1-3.55 3.97"/><path d="M22 13h-4"/>
      <path d="M3 21a4 4 0 0 1 3.81-4"/><path d="M3 5a4 4 0 0 0 3.55 3.97"/>
      <path d="M6 13H2"/><path d="m8 2 1.88 1.88"/>
      <path d="M9 7.13V6a3 3 0 1 1 6 0v1.13"/>
    </g>
  </symbol>

  <symbol id="icon-terminal" viewBox="0 0 24 24">
    <g stroke-linecap="round" stroke-linejoin="round">
      <path d="M12 19h8"/><path d="m4 17 6-6-6-6"/>
    </g>
  </symbol>

  <symbol id="icon-external-link" viewBox="0 0 24 24">
    <g stroke-linecap="round" stroke-linejoin="round">
      <path d="M15 3h6v6"/><path d="M10 14 21 3"/>
      <path d="M18 13v6a2 2 0 0 1-2 2H5a2 2 0 0 1-2-2V8a2 2 0 0 1 2-2h6"/>
    </g>
  </symbol>

  <symbol id="icon-eye" viewBox="0 0 24 24">
    <g stroke-linecap="round" stroke-linejoin="round">
      <path d="M2 12s3-7 10-7 10 7 10 7-3 7-10 7-10-7-10-7z"/>
      <circle cx="12" cy="12" r="3"/>
    </g>
  </symbol>
  <symbol id="icon-info" viewBox="0 0 24 24">
    <g stroke-linecap="round" stroke-linejoin="round">
      <circle cx="12" cy="12" r="10"/>
      <path d="M12 16v-4"/><path d="M12 8h.01"/>
    </g>
  </symbol>

</svg>
